<?xml version="1.0" encoding="UTF-8"?>
<svg version="1.1" viewBox="0 0 1600 1600" width="1280" height="1280" xmlns="http://www.w3.org/2000/svg">
<path transform="translate(825,392)" d="m0 0h30l1 3 46 1 2 1v2l16 1 9 3 11 1 16 5 9 3 7 3 21 7 16 8 10 3 17 9 9 6 11 6 9 6 11 9 9 6 7 6v2l4 2 9 6 9 9 6 5 6 7 6 5 7 8 8 8 5 10h2l6 8 3 5 9 11 3 5 8 13 3 6 6 9 8 15 5 11 38 19 8 6 18 12 9 9 6 5 6 7 6 5 6 7 6 5 7 8 8 8 6 10 7 10 8 14 9 19 8 16 6 15 2 9 3 7 4 14 1 12 2 1 1 5 1 30 2 1 1 3v22l-3 4-1 34-2 5-1 1-1 16-1 3h-2l-1 10-3 4-1 8-3 4-1 8-3 5-2 8-10 19-7 14-5 6-2 5-4 5h-2l-2 7-18 18-2 6-29 29h-5l-2 4-10 8-7 4-8 5-16 8-11 6-5 4-9 3-11 5-9 3-13 4-16 4-1 1-17 2-3 2-22 1h-687l-13-1-5-2-13-3-21-7-13-6-9-3-9-6-16-8-10-7-6-4-8-8-5-4-5-2-3-6-11-12-14-14-3-6-6-8-3-5-5-7-10-21-3-8-6-17-4-12-1-2-2-12-2-3-1-34h-2l-1-2v-20l3-5 1-26 3-6 1-13 10-29 8-16 9-17 3-6 6-9 6-8h2l5-10 7-7 7-8 7-7 8-7 5-4 14-9 9-7 1-2 1-35 3-5 2-13 4-12 9-17 6-9 6-8 9-9 2-5 5-5 6-3 9-8 17-9 17-8 12-2 2-2 53-1 6-5 4-7 7-10 6-9 3-5 7-8 3-4h2l5-10 15-15 6-7h2l2-4h2l2-4h2l2-4h2l2-4 8-7 5-4 32-24 15-10 11-7 30-15 14-5 10-4 7-3 9-2 3-2 9-2 3-2 9-2 5-2 15-2 4-2 16-2 4-2 41-1zm-12 44-2 2-27 2-5 2-14 2-17 5-7 2-13 4-6 3-10 3-9 3-29 14-15 8-10 7-12 8-10 9-6 3-10 9-13 13-6 2-4 4-2 6-22 22-2 6-7 7v2h-2l-3 7-6 7-2 5-2 4 9 8 8 5 13 13h2l2 4 8 8 3 6 5 6 8 16 5 11v13l-7 9-7 5h-15l-3-1-2-4-8-8-2-10-6-6-2-5-11-12-13-13-5-4-23-11-1-1h-52l-16 8-19 10-15 15-2 6-3 3v2h-2l-8 16-3 11-2 3v37l3 3v8l-3 4-3 6-8 7-7 4-3 3-8 4-4 4-8 4-32 32v2h-2l-4 8-6 9-16 32-4 10-3 7-2 9-2 2-1 21-3 3v38l3 1 1 22 2 3 2 13 6 12 3 9 8 17 6 10 7 10 9 10 4 5 3 5 8 9h2v2l9 6 11 9 10 6 6 3 9 6 14 7 8 2 4 2 8 2 4 2 9 1v2l4 1 28 1v2l4 1h642l6-1 1-2 25-1 9-1 3-2 13-2 3-2 13-2 12-6 9-3 16-8 11-6 9-6 8-4 11-9 6-4 13-12 11-11 7-8 4-4 3-6 9-10 3-6 6-9 14-28 4-12 4-8 3-14 2-6 2-10 2-6 1-16 3-9v-40l-1-2h-2l-1-22-3-4-2-14-2-3-6-20-6-12-1-7-7-9-8-16-6-9-5-8-9-10-4-5-3-5-9-10-7-6-6-3-9-9-8-7-3-2-4 1v6l2 2 2 19 3 1v21l2 7h2v76l-3 1-1 27-3 1-1 19-3 1-1 11h-2l-2 10-5 5h-24l-5-5-4-2v-25l3-6 1-10 3-6 1-19 3-4v-73l-3-2-1-21-3-4-1-16-3-5-2-9-2-3-2-9-3-8-6-17-23-46-6-8-4-7-4-5-3-5-9-11-3-5-15-16-32-32-5-4-6-3-10-9-7-4-9-8-6-3-9-6-28-14-16-6-18-7-26-8-22-5-23-4-19-3z" fill="#9AE7FB"/>
</svg>
